# xmcd CD database file
#
# Track frame offsets:
#	150
#	19435
#	41974
#	56102
#	78576
#	98372
#	115461
#	129905
#	146349
#	167942
#	184635
#	200568
#
# Disc length: 3004 seconds
#
# Revision: 0
# Processed by: cddbd v1.5.1PL0 Copyright (c) Steve Scherf et al.
# Submitted via: CDex 1.51
#
DISCID=a90bba0c
DTITLE=Kings Of Convenience - Versus
DYEAR=2001
DGENRE=Jazz
TTITLE0=Röyksopp: I don't know what I can save you from
TTITLE1=Four Tet: The weight of my words
TTITLE2=Riton: The girl from back then
TTITLE3=Erot: Gold for the price of silver
TTITLE4=Andy Votel: Winning a battle, losing the war
TTITLE5=Evil Tordivel: Leaning against the wall
TTITLE6=David Whitaker: Toxic girl
TTITLE7=Alfie: Failure
TTITLE8=Ladytron: Little Kids
TTITLE9=Kings of Convenience: Failure
TTITLE10=Bamboo Soul: Leaning against the wall
TTITLE11=Four Tet: The weight of my words (instrumental)
EXTD=YEAR: 2001
EXTT0=
EXTT1=
EXTT2=
EXTT3=
EXTT4=
EXTT5=
EXTT6=
EXTT7=
EXTT8=
EXTT9=
EXTT10=
EXTT11=
PLAYORDER=
